<?xml version="1.0" encoding="UTF-8"?>
<svg width="600" height="195" version="1.1" xmlns="http://www.w3.org/2000/svg">
 <path d="m84.162 102.16h-35.773l-36.596-36.362c-2.3806-2.3655-2.3928-6.2128-0.02424-8.5903l46.932-47.172h36.851l-11.141 10.831-40.905 40.647 40.385 40.647m-14.433-40.553h35.773l36.596 36.362c2.38 2.3654 2.3925 6.2127 0.0238 8.5903l-46.932 47.169h-36.851l11.141-10.831 40.905-40.647-40.385-40.647m281.54 28.184v-20.089h-17.214v-28.34h-23.69v28.34h-14.703v20.089h14.703v32.885c0 18.283 3.6012 31.719 26.05 31.304l14.092-0.27641v-18.836h-6.9928c-9.9778 0-9.4227-5.817-9.4227-16.621l-0.0385-28.455h17.213zm238.73 0v-20.089h-17.214v-28.34h-23.69v28.34h-14.703v20.089h14.703v32.885c0 18.283 3.6012 31.719 26.05 31.304l14.092-0.27641v-18.836h-6.9928c-9.9778 0-9.4216-5.817-9.4216-16.621l-0.0396-28.455h17.213zm-171.14-10.561c-2.8207-3.3887-6.1274-6.0153-9.8566-7.8311-4.4508-2.1529-9.6594-3.243-15.48-3.243-7.1265 0-13.516 1.7581-18.981 5.2198-5.459 3.4586-9.7897 8.3473-12.865 14.521-3.0642 6.1579-4.6219 13.388-4.6219 21.498 0 8.1104 1.6369 14.915 4.8677 21.116 3.2364 6.2214 7.7246 11.177 13.337 14.737 5.6233 3.5672 12.036 5.3774 19.063 5.3774 5.3049 0 10.151-1.1487 14.396-3.4166 3.361-1.7944 6.1761-4.1687 8.3964-7.0687v9.1463c0 5.6686-1.4908 10.02-4.4214 12.92-2.9396 2.9-7.4086 4.3636-13.288 4.3636-5.0648 0-9.0489-1.1475-11.837-3.4166-2.2803-1.8544-4.2718-4.2899-4.7363-9.4465h-22.993c0.21297 7.2148 2.3325 12.077 5.3231 16.336 3.3554 4.7736 8.0746 8.5063 14.038 11.083 5.9065 2.5477 12.759 3.8414 20.366 3.8414 12.769 0 22.935-3.2092 30.207-9.5314 7.3179-6.3584 11.028-15.261 11.028-26.457v-79.28h-21.941zm-4.1993 41.324c-1.5123 3.1212-3.6465 5.5692-6.3528 7.2628-2.7018 1.6947-5.9631 2.5568-9.698 2.5568-5.399 0-9.596-1.8363-12.838-5.6199-3.2308-3.7624-4.8677-8.9305-4.8677-15.362s1.6369-11.6 4.8677-15.368c3.2002-3.7318 7.5207-5.6205 12.838-5.6205 5.3163 0 10.014 1.916 13.317 5.7056 3.335 3.8199 5.0263 9.0153 5.0263 15.431 0 4.157-0.77144 7.8584-2.2928 11.01zm-126.41-79.192h-24.845v20.247h24.845zm235.06 40.972c-3.7745-4.494-8.5051-8.0163-14.062-10.473-5.5508-2.4534-11.794-3.7045-18.547-3.7045-8.2774 0-15.744 1.8797-22.2 5.5842-6.4706 3.7166-11.606 8.8787-15.267 15.352-3.6624 6.4678-5.5179 13.974-5.5179 22.303 0 8.3291 1.8012 16.33 5.3502 22.898 3.5593 6.5895 8.675 11.757 15.205 15.373 6.5159 3.5955 14.17 5.4205 22.749 5.4205 10.531 0 19.47-2.6474 26.576-7.8742 6.8433-5.0274 11.55-12.121 14.114-21h-24.01c-1.2631 3.0212-3.0427 5.5938-5.5904 7.4063-3.0121 2.1376-6.9022 3.2217-11.566 3.2217-4.0441 0-7.5094-0.98441-10.299-2.9215-2.8026-1.9371-4.9436-4.8008-6.3494-8.5198-0.84394-2.2108-1.4421-4.7524-1.7944-7.5794h60.029l0.11781-0.74698c1.0716-6.7744 0.80203-13.194-0.81336-19.078-1.6188-5.8999-4.3511-11.168-8.1234-15.662zm-50.83 19.935c0.36703-1.7095 0.86207-3.4889 1.4908-5.1104 1.4636-3.7683 3.5763-6.6682 6.2848-8.6054 2.6972-1.9373 6.0526-2.9151 9.9755-2.9151 4.9164 0 8.9514 1.5941 11.994 4.7308 2.8841 2.9848 4.521 7.0628 4.8699 11.9h-34.613zm-184.72-32.567h-23.849v84.002h23.849zm-50.436 25.216c4.3624-2.4778 7.8583-5.5629 10.403-9.2007 2.9-4.1418 4.3726-8.8726 4.3726-14.053 0-9.6985-3.6261-17.269-10.771-22.503-7.0597-5.1742-16.773-7.7947-28.88-7.7947h-43.777v112.34h45.526c12.75 0 22.959-2.9646 30.34-8.8155 7.4403-5.8997 11.217-14.162 11.217-24.562 0-6.3312-1.7762-11.779-5.2744-16.188-3.139-3.9414-7.5581-7.0416-13.154-9.2248zm-44.962-33.304h18.183c5.7026 0 10.008 1.1053 12.805 3.2795 2.7629 2.1468 4.1053 4.9677 4.1053 8.6206s-1.3424 6.6165-4.1053 8.7725c-2.7969 2.1741-7.1027 3.2794-12.805 3.2794h-18.183zm34.231 68.039c-3.1526 2.5262-7.9648 3.804-14.302 3.804h-19.929v-27.492h19.929c6.3335 0 11.152 1.2359 14.316 3.662 3.1368 2.4201 4.6615 5.6144 4.6615 9.7775 0 4.3784-1.5304 7.7304-4.6762 10.251z" fill="#03aac1"/>
</svg>
